<svg width="24" height="24" viewBox="0 0 24 24" fill="none" xmlns="http://www.w3.org/2000/svg">
<path fill-rule="evenodd" clip-rule="evenodd" d="M12.0009 18C12.1999 18 12.3906 17.921 12.5313 17.7803C12.6719 17.6397 12.7509 17.4489 12.7509 17.25V8.5605L15.9699 11.781C16.0397 11.8507 16.1225 11.906 16.2136 11.9438C16.3047 11.9815 16.4023 12.0009 16.5009 12.0009C16.5996 12.0009 16.6972 11.9815 16.7883 11.9438C16.8794 11.906 16.9622 11.8507 17.0319 11.781C17.1017 11.7113 17.157 11.6285 17.1947 11.5374C17.2325 11.4463 17.2519 11.3486 17.2519 11.25C17.2519 11.1514 17.2325 11.0537 17.1947 10.9626C17.157 10.8715 17.1017 10.7887 17.0319 10.719L12.5319 6.219C12.4623 6.14915 12.3795 6.09374 12.2884 6.05593C12.1973 6.01812 12.0996 5.99866 12.0009 5.99866C11.9023 5.99866 11.8046 6.01812 11.7135 6.05593C11.6224 6.09374 11.5396 6.14915 11.4699 6.219L6.96995 10.719C6.82912 10.8598 6.75 11.0508 6.75 11.25C6.75 11.4492 6.82912 11.6402 6.96995 11.781C7.11078 11.9218 7.30178 12.0009 7.50095 12.0009C7.70011 12.0009 7.89112 11.9218 8.03195 11.781L11.2509 8.5605V17.25C11.2509 17.4489 11.33 17.6397 11.4706 17.7803C11.6113 17.921 11.802 18 12.0009 18Z" fill="white"/>
</svg>
